<?xml version="1.0" encoding="UTF-8"?>
<svg xmlns="http://www.w3.org/2000/svg" viewBox="0 -2 90 150">

    <!-- CIRCLE -->
    <circle class="point-frag circle-draw" cx="41.77" cy="72.15" r="6.66"/>
    <!-- LOTUS FRAGMENT -->
    <path class="lotus-frag lotus-draw" d="m47.2,3.25s-5.44-3.25-5.44-3.25l-5.44,3.25C24.22,10.21,12.11,17.17,0,24.13v.23c1.01.74,2.35,1.68,3.95,2.71,0,0,2.62,1.71,5.11,3.03,4.42,2.34,9.72,5.14,17.01,5.77,2.85.25,7.63.29,13.42-1.45,0,0,.01,0,.02-.01,0-.76,0-1.52,0-2.29-.03,0-6.01,1.67-8.44,1.9-9.66.93-16.23-3.05-21.53-9.12-.61-.69-.16-.9.62-1.22,4.59-1.87,9.3-2.89,14.2-2.61.78.05,1.58.1,2.36.19-.92-2.41-1.35-5.08-1.47-7.91-.03-.77.32-.71.93-.59,3.56.74,6.81,2.15,9.56,4.56.12.1.24.21.35.31.05-.36.1-.72.17-1.09.75-3.88,2.6-7.28,5.11-10.34.15-.18.28-.28.39-.31.12.03.24.13.39.31,2.51,3.06,4.35,6.45,5.11,10.34.07.37.13.73.17,1.09.12-.11.24-.21.35-.31,2.75-2.42,6-3.82,9.56-4.56.61-.13.96-.18.93.59-.12,2.83-.56,5.49-1.47,7.91.78-.09,1.58-.14,2.36-.19,4.91-.28,9.62.74,14.2,2.61.78.32,1.22.53.62,1.22-5.3,6.07-11.86,10.05-21.53,9.12-2.43-.23-8.41-1.89-8.44-1.9,0,0,0,1.52,0,2.29,5.8,1.75,10.58,1.7,13.44,1.46,7.28-.63,12.58-3.43,17.01-5.77,3.79-2.01,6.82-4.12,9.06-5.87,0,0,0,0,0,0,0-.03,0-.07,0-.1-12.11-6.96-24.22-13.92-36.33-20.88Z"/>

    <!-- DARK FRAGMENTS -->
    <path class="dark-frag dark-draw" d="m44.03,34.32v22.87s12.67,7.32,12.67,7.32v15.09s-7.79,4.5-7.79,4.5c-3.02,1.74-4.88,4.97-4.88,8.45h0s39.51-22.81,39.51-22.81V24.13c-2.24,1.75-5.27,3.87-9.06,5.87-4.42,2.34-9.72,5.14-17.01,5.77-2.86.25-7.64.3-13.44-1.46Zm4.78,19.99h7.89v.82c0,1.31,0,2.55,0,3.74l-7.89-4.56Zm2.18-14.56c5.61,0,11.23,0,16.84,0,.93-.09,1.74-.23,2.37-.37.47-.1,1.6-.36,3.01-.88.77-.28,1.42-.57,1.91-.8.32-.16.64-.33.95-.49.39-.21.81-.45,1.25-.73.5-.33.95-.66,1.34-.97.02,6.54,0,13.08,0,19.62,0,3.93,0,7.86,0,11.79l-16.32,9.42c-.22-3.86-.04-6.85.24-8.55.17-1.04.44-2.05.79-3.05.7-2.04,1.43-2.79,1.1-3.56-.19-.45-.78-.98-2.64-1.14-.1-.01-.2-.02-.31-.03,0-.1,0-.2,0-.29,0-1.85,0-3.7,0-5.55h2.23c2.49,0,4.97,0,7.46,0,1.12,0,1.49-.38,1.49-1.48,0-2.29-.13-4.82-1.17-6.95-.53-1.09-1.02-1.15-2.11-.64-.56.26-1.09.57-1.65.82-1.45.66-5.52,1.82-7.27,2.12-2.59.43-7.13.7-12.96.4v-.74c0-1.52,0-3,0-4.52h0c0-1.9,1.54-3.44,3.44-3.44Z"/>

    <path class="dark-frag dark-draw" d="m26.07,35.77c-7.28-.63-12.58-3.43-17.01-5.77C5.27,27.99,2.24,25.88,0,24.13v45.62s39.51,22.81,39.51,22.81h0c0-3.49-1.86-6.71-4.88-8.45l-7.79-4.5v-15.09l12.67-7.32v-22.87c-5.8,1.75-10.58,1.7-13.44,1.46Zm.77,23.1v-4.56h7.89l-7.89,4.56Zm9.15-15.68h0v5.26c-5.84.3-10.37.03-12.96-.4-1.75-.29-5.82-1.45-7.27-2.12-.56-.25-1.09-.56-1.65-.82-1.09-.51-1.58-.45-2.11.64-1.04,2.13-1.17,4.66-1.17,6.95,0,1.1.37,1.48,1.49,1.48,2.49,0,4.97,0,7.46,0h2.23v5.55c0,.1,0,.2,0,.29-.1.01-.2.02-.31.03-1.86.16-2.44.69-2.64,1.14-.33.77.4,1.53,1.1,3.56.34.99.61,2.01.79,3.05.28,1.69.46,4.69.24,8.55l-16.32-9.42v-11.79c0-6.54-.02-13.08,0-19.62.39.32.84.65,1.34.97.44.28.86.52,1.25.73.32.16.64.33.95.49.49.23,1.13.52,1.91.8,1.41.52,2.54.78,3.01.88.63.14,1.43.28,2.37.37h16.84c1.9,0,3.44,1.54,3.44,3.44Z"/>
</svg>