<?xml version="1.0" encoding="UTF-8"?>
<svg id="Calque_2" data-name="Calque 2" xmlns="http://www.w3.org/2000/svg" viewBox="0 0 200.97 200.97">
  <defs>
    <style>
      .cls-1 {
        fill: #393949;
      }

      .cls-2 {
        fill: #f3f3fc;
      }

      .cls-3 {
        fill: #7d22ff;
      }
    </style>
  </defs>
  <g id="Calque_1-2" data-name="Calque 1">
    <g>
      <circle class="cls-2" cx="100.48" cy="100.48" r="100.48"/>
      <g>
        <path class="cls-3" d="m100.48,10.4h0s-10.57,6.32-10.57,6.32c-23.55,13.6-47.1,27.19-70.65,40.79.41.32.87.68,1.4,1.08.14.11.68.52,1.34,1,.89.65,2.39,1.76,4.41,3.1.85.57,1.51.99,1.98,1.29,1.38.88,2.45,1.53,2.75,1.71,2.49,1.5,4.56,2.62,5.76,3.25.24.13.51.27,1.03.54,4.35,2.27,6.53,3.4,8.05,4.1,2.34,1.08,4.18,1.77,5.6,2.3,1.52.57,3.57,1.33,6.33,2.09.54.15,1.87.51,3.62.9.81.18,2.1.46,3.78.73.52.08,2.28.36,4.67.56,3.22.27,5.95.26,7.86.2,1.18-.04,3.69-.15,6.89-.57,2.99-.39,6.88-1.1,11.37-2.45v-.02c0-1.48,0-4.43,0-4.44-.05.02-11.69,3.24-16.41,3.7-18.79,1.8-31.56-5.93-41.87-17.74-1.18-1.35-.32-1.76,1.2-2.38,8.92-3.64,18.08-5.63,27.62-5.07,1.53.09,3.07.19,4.6.36-1.78-4.7-2.62-9.88-2.86-15.37-.07-1.49.63-1.39,1.81-1.14,6.93,1.45,13.24,4.17,18.59,8.88.23.2.46.4.69.61.09-.7.2-1.4.34-2.11,1.47-7.55,5.05-14.16,9.93-20.11.29-.35.53-.54.76-.61,0,0,0,0,0,0v-11.48Z"/>
        <path class="cls-1" d="m69.96,80.15c-14.17-1.23-24.47-6.68-33.08-11.23-7.38-3.9-13.27-8.02-17.62-11.42v88.71s76.83,44.36,76.83,44.36h0c0-6.78-3.62-13.05-9.49-16.44l-15.15-8.75v-29.35l24.64-14.23v-44.48c-11.28,3.4-20.58,3.31-26.13,2.83Zm1.49,44.92v-8.86h15.35l-15.35,8.86Zm17.8-30.49h0v10.22c-11.35.59-20.17.05-25.21-.78-3.4-.57-11.31-2.83-14.14-4.11-1.09-.49-2.12-1.09-3.21-1.6-2.12-.99-3.07-.88-4.1,1.24-2.02,4.15-2.27,9.06-2.27,13.52,0,2.14.71,2.87,2.89,2.87,4.84,0,9.67,0,14.51,0h4.35v10.78c0,.19,0,.38,0,.57-.2.02-.4.04-.6.06-3.61.31-4.75,1.34-5.13,2.21-.65,1.5.77,2.97,2.13,6.93.66,1.93,1.19,3.91,1.53,5.92.55,3.3.89,9.12.47,16.62l-31.74-18.32v-22.93c0-12.72-.04-25.44,0-38.15.76.61,1.63,1.26,2.6,1.89.85.55,1.66,1.02,2.43,1.42.62.32,1.24.64,1.86.96.95.45,2.2,1.01,3.71,1.56,2.74,1.01,4.94,1.51,5.85,1.71,1.23.26,2.79.54,4.61.72h32.75c3.69,0,6.69,2.99,6.69,6.69Z"/>
        <path class="cls-3" d="m100.48,10.4h0s10.57,6.32,10.57,6.32c23.55,13.6,47.1,27.19,70.65,40.79-.41.32-.87.68-1.4,1.08-.14.11-.68.52-1.34,1-.89.65-2.39,1.76-4.41,3.1-.85.57-1.51.99-1.98,1.29-1.38.88-2.45,1.53-2.75,1.71-2.49,1.5-4.56,2.62-5.76,3.25-.24.13-.51.27-1.03.54-4.35,2.27-6.53,3.4-8.05,4.1-2.34,1.08-4.18,1.77-5.6,2.3-1.52.57-3.57,1.33-6.33,2.09-.54.15-1.87.51-3.62.9-.81.18-2.1.46-3.78.73-.52.08-2.28.36-4.67.56-3.22.27-5.95.26-7.86.2-1.18-.04-3.69-.15-6.89-.57-2.99-.39-6.88-1.1-11.37-2.45v-.02c0-1.48,0-4.43,0-4.44.05.02,11.69,3.24,16.41,3.7,18.79,1.8,31.56-5.93,41.87-17.74,1.18-1.35.32-1.76-1.2-2.38-8.92-3.64-18.08-5.63-27.62-5.07-1.53.09-3.07.19-4.6.36,1.78-4.7,2.62-9.88,2.86-15.37.07-1.49-.63-1.39-1.81-1.14-6.93,1.45-13.24,4.17-18.59,8.88-.23.2-.46.4-.69.61-.09-.7-.2-1.4-.34-2.11-1.47-7.55-5.05-14.16-9.93-20.11-.29-.35-.53-.54-.76-.61,0,0,0,0,0,0v-11.48Z"/>
        <path class="cls-1" d="m104.88,77.32v44.48s24.64,14.23,24.64,14.23v29.35s-15.15,8.75-15.15,8.75c-5.87,3.39-9.49,9.66-9.49,16.44h0s76.83-44.36,76.83-44.36V57.5c-4.36,3.4-10.24,7.52-17.62,11.42-8.6,4.55-18.91,10-33.08,11.23-5.55.48-14.85.57-26.13-2.83Zm9.29,38.88h15.35c0,.53,0,1.06,0,1.58,0,2.54,0,4.97,0,7.28l-15.35-8.86Zm4.24-28.31c10.92,0,21.83,0,32.75,0,1.82-.18,3.37-.45,4.61-.72.92-.2,3.11-.7,5.85-1.71,1.5-.55,2.75-1.11,3.71-1.56.62-.32,1.24-.64,1.86-.96.77-.4,1.58-.87,2.43-1.42.98-.63,1.85-1.28,2.6-1.89.04,12.72,0,25.44,0,38.15,0,7.64,0,15.29,0,22.93l-31.74,18.32c-.42-7.5-.08-13.33.47-16.62.33-2.01.87-3.99,1.53-5.92,1.36-3.96,2.78-5.43,2.13-6.93-.38-.87-1.51-1.91-5.13-2.21-.2-.02-.4-.04-.6-.06,0-.19,0-.38,0-.57,0-3.59,0-7.19,0-10.78h4.35c4.84,0,9.67,0,14.51,0,2.17,0,2.89-.73,2.89-2.87,0-4.46-.25-9.37-2.27-13.52-1.03-2.12-1.98-2.23-4.1-1.24-1.08.5-2.12,1.1-3.21,1.6-2.82,1.28-10.73,3.55-14.14,4.11-5.04.84-13.86,1.37-25.21.78v-1.44c0-2.95,0-5.84,0-8.78h0c0-3.69,2.99-6.69,6.69-6.69Z"/>
        <circle class="cls-3" cx="100.48" cy="150.71" r="12.95"/>
      </g>
    </g>
  </g>
</svg>